<?xml version="1.0" encoding="utf-8"?>
<!-- Generator: Adobe Illustrator 25.2.0, SVG Export Plug-In . SVG Version: 6.00 Build 0)  -->
<svg version="1.1" id="Layer_1" xmlns="http://www.w3.org/2000/svg" xmlns:xlink="http://www.w3.org/1999/xlink" x="0px" y="0px"
	 viewBox="0 0 100 100" style="enable-background:new 0 0 100 100;" xml:space="preserve">
<style type="text/css">
	.st0{fill:#36312B;}
	.st1{fill:#FFFFFF;}
</style>
<g>
	<g>
		<path class="st0" d="M64.3,65C57,60.7,52,61.4,50,64.3c-2-3-7-3.7-14.3,0.6c-6.7,4-16.8-3.4-15.1-1.4c11.6,14.3,25.8,9.5,29.4,5
			c3.6,4.5,17.8,9.3,29.4-5C81.1,61.5,71,68.9,64.3,65z"/>
		<g>
			<g>
				<path class="st1" d="M92.4,30.2c0,18.1-23.8,24.7-33.2,9.3c-5.6,2.6-12,3-17.7,1.3C32.9,57.5,7.6,51.4,7.6,32.7
					c0-11.4,10.5-19.9,21.7-17.5c0.1,0,0.3,0.1,0.4,0.1c0.4-0.5,0.7-1.1,1.2-1.5c7.5-9,22.8-10.2,32.1-3.1c1.3,1,2.5,2.2,3.6,3.5
					c0.2-0.1,0.4-0.2,0.6-0.3C78.8,8.6,92.4,17.1,92.4,30.2z"/>
				<path class="st0" d="M25.9,51.3c-1.5,0-3.1-0.2-4.7-0.6C12.5,48.6,7,41.5,7,32.7c0-5.6,2.5-10.9,6.9-14.4s10.1-4.9,15.6-3.7
					c0.3-0.4,0.6-0.8,0.9-1.2c7.5-9.1,23.3-10.6,33-3.2c1.2,0.9,2.4,2,3.4,3.2c0,0,0.1,0,0.1-0.1c5.7-2.6,12.3-2,17.7,1.4
					c5.3,3.4,8.4,9.2,8.4,15.6c0,8.5-5.3,15.5-13.5,17.8c-8.1,2.3-16.1-0.8-20.6-7.7c-5.3,2.3-11.4,2.8-17.1,1.3
					C38.5,47.8,32.5,51.3,25.9,51.3z M25.5,15.4c-3.9,0-7.7,1.3-10.8,3.8c-4.1,3.3-6.4,8.2-6.4,13.4c0,10,7.1,15.3,13.2,16.7
					c6.1,1.5,14.9,0,19.4-8.8l0.2-0.5l0.5,0.1c5.7,1.6,12,1.2,17.2-1.3l0.5-0.2l0.3,0.5c4.1,6.8,11.8,9.8,19.4,7.6
					c7.7-2.2,12.6-8.7,12.6-16.6c0-5.9-2.9-11.3-7.9-14.5s-11.1-3.7-16.4-1.3c-0.2,0.1-0.4,0.2-0.6,0.3l-0.5,0.2l-0.3-0.4
					c-1-1.3-2.2-2.4-3.4-3.4c-9.2-7-24.1-5.6-31.2,3c-0.4,0.5-0.8,1-1.1,1.5L30,16l-0.4-0.1c-0.1,0-0.2-0.1-0.3-0.1h-0.1
					C28,15.5,26.7,15.4,25.5,15.4z"/>
			</g>
			<g>
				<path class="st1" d="M70.4,58.6c-12.9-8.1-27.9-8.1-40.8,0c-0.8,0.5-1.7-0.4-1.7-1.7c0-12.3-0.2-12.6,0.7-13.3
					C49.4,29.9,72,41.4,72,45.3C72.1,55.2,72.6,60,70.4,58.6z"/>
				<path class="st0" d="M71,59.5c-0.3,0-0.6-0.1-1-0.3l0,0c-12.7-8-27.4-8-40.1,0c-0.5,0.3-1,0.3-1.5,0c-0.7-0.4-1.1-1.3-1.1-2.3
					c0-2.5,0-4.4,0-6c0-6.8,0-7.1,1-7.8c15.7-10.4,32.3-6.4,39.6-2.5c1.4,0.8,4.8,2.8,4.8,4.7c0,1.8,0,3.4,0,4.8
					c0.1,6,0.1,8.5-1.1,9.2C71.4,59.5,71.2,59.5,71,59.5z M70.7,58.1c0.2,0.1,0.3,0.1,0.3,0.1l0,0c0.5-0.4,0.5-4.1,0.4-8
					c0-1.4,0-3.1,0-4.9c0-0.6-1.1-2-4.1-3.6C60.2,38,44.2,34.2,29,44.2c-0.5,0.3-0.5,0.7-0.5,6.7c0,1.6,0,3.6,0,6
					c0,0.6,0.2,1.1,0.5,1.2c0.1,0,0.1,0,0.2,0C42.4,49.9,57.5,49.9,70.7,58.1L70.7,58.1z"/>
			</g>
			<g>
				<g>
					<path class="st1" d="M80.6,32.7c0,7.7-9.6,14-21.5,14s-21.5-6.3-21.5-14"/>
				</g>
				<g>
					<path class="st0" d="M80.6,32.7c0.1,1.2,0,2.4-0.4,3.5c-0.4,1.2-1,2.2-1.7,3.2c-1.4,2-3.4,3.5-5.5,4.7c-4.2,2.4-9.1,3.4-14,3.5
						c-2.4,0-4.8-0.3-7.2-0.8c-2.4-0.6-4.7-1.4-6.8-2.6c-2-1.2-4-2.8-5.4-4.7c-0.7-1-1.3-2.1-1.7-3.2c-0.4-1.2-0.5-2.4-0.4-3.5
						c0.1,1.2,0.4,2.3,0.9,3.3s1.1,2,1.9,2.8c1.5,1.7,3.4,3,5.5,4c2,1,4.2,1.7,6.5,2.2c2.2,0.5,4.5,0.7,6.8,0.7s4.6-0.2,6.8-0.7
						c2.2-0.4,4.4-1.2,6.5-2.2c2-1,4-2.3,5.5-4c0.8-0.8,1.4-1.8,1.9-2.8C80.1,35,80.5,33.9,80.6,32.7z"/>
				</g>
			</g>
			<g>
				<path class="st0" d="M29.9,26c-1.5-3-1.6-6.8-0.6-10.8c0.1,0,0.3,0.1,0.4,0.1c0.4-0.5,0.7-1.1,1.2-1.5
					C29.2,17.6,28.7,21.8,29.9,26z"/>
			</g>
			<g>
				<path class="st0" d="M81.6,20.4c-9.1,1.2-15.2-3.3-18.6-9.8c1.3,1,2.5,2.2,3.6,3.5c0.2-0.1,0.4-0.2,0.6-0.3
					C70.5,17.8,75.2,20.4,81.6,20.4z"/>
			</g>
			<g>
				<path class="st0" d="M28.2,44c-0.2,0.3-0.3,0.7-0.3,1.5c-5.4-2.8-7.2-6.5-7.5-12.8C21.6,38.4,23.1,41.6,28.2,44z"/>
			</g>
		</g>
	</g>
</g>
<g>
	<g>
		<path class="st0" d="M26.2,81.1c-0.6,0-1,0.2-1.3,0.6c-0.3,0.4-0.5,1-0.5,1.8c0,1.6,0.6,2.4,1.8,2.4c0.5,0,1.1-0.1,1.8-0.4v1.3
			c-0.6,0.2-1.2,0.4-2,0.4c-1,0-1.8-0.3-2.4-0.9s-0.8-1.5-0.8-2.7c0-0.7,0.1-1.4,0.4-1.9c0.3-0.6,0.7-1,1.2-1.3
			c0.5-0.3,1.1-0.4,1.8-0.4c0.7,0,1.4,0.2,2.1,0.5l-0.5,1.2c-0.3-0.1-0.5-0.2-0.8-0.3C26.7,81.1,26.4,81.1,26.2,81.1z"/>
		<path class="st0" d="M35.3,87h-1.5V84H31V87h-1.5v-7.1H31v2.8h2.8v-2.8h1.5V87z"/>
		<path class="st0" d="M41.2,87h-4.1v-7.1h4.1v1.2h-2.6v1.6H41V84h-2.4v1.8h2.6V87z"/>
		<path class="st0" d="M44.2,87h-1.5v-7.1h4.1v1.2h-2.6V83h2.4v1.2h-2.4V87z"/>
		<path class="st0" d="M50.8,87v-7.1h0.8v6.4h3.1V87H50.8z"/>
		<path class="st0" d="M62.1,83.5c0,1.1-0.3,2-0.9,2.7c-0.6,0.7-1.4,1-2.4,1c-1,0-1.9-0.3-2.4-1s-0.9-1.5-0.9-2.7
			c0-1.2,0.3-2.1,0.9-2.7c0.6-0.6,1.4-1,2.4-1c1,0,1.8,0.3,2.4,1S62.1,82.3,62.1,83.5z M56.5,83.5c0,1,0.2,1.7,0.6,2.2
			c0.4,0.5,1,0.7,1.8,0.7c0.8,0,1.4-0.2,1.8-0.7s0.6-1.2,0.6-2.2c0-1-0.2-1.7-0.6-2.2c-0.4-0.5-1-0.7-1.8-0.7
			c-0.8,0-1.4,0.2-1.8,0.7C56.7,81.8,56.5,82.5,56.5,83.5z"/>
		<path class="st0" d="M66.8,83.3h2.4v3.5c-0.4,0.1-0.8,0.2-1.1,0.3c-0.4,0.1-0.8,0.1-1.4,0.1c-1.1,0-1.9-0.3-2.5-1
			c-0.6-0.6-0.9-1.5-0.9-2.7c0-0.7,0.1-1.4,0.4-1.9c0.3-0.6,0.7-1,1.3-1.3s1.2-0.4,2-0.4c0.8,0,1.5,0.1,2.1,0.4L68.8,81
			c-0.6-0.3-1.3-0.4-1.9-0.4c-0.9,0-1.5,0.3-2,0.8c-0.5,0.5-0.7,1.2-0.7,2.1c0,1,0.2,1.7,0.7,2.2c0.5,0.5,1.2,0.7,2.1,0.7
			c0.5,0,1-0.1,1.4-0.2v-2.2h-1.6V83.3z"/>
		<path class="st0" d="M77.1,83.5c0,1.1-0.3,2-0.9,2.7c-0.6,0.7-1.4,1-2.4,1c-1,0-1.9-0.3-2.4-1s-0.9-1.5-0.9-2.7
			c0-1.2,0.3-2.1,0.9-2.7c0.6-0.6,1.4-1,2.4-1c1,0,1.8,0.3,2.4,1S77.1,82.3,77.1,83.5z M71.5,83.5c0,1,0.2,1.7,0.6,2.2
			c0.4,0.5,1,0.7,1.8,0.7c0.8,0,1.4-0.2,1.8-0.7s0.6-1.2,0.6-2.2c0-1-0.2-1.7-0.6-2.2c-0.4-0.5-1-0.7-1.8-0.7
			c-0.8,0-1.4,0.2-1.8,0.7C71.7,81.8,71.5,82.5,71.5,83.5z"/>
	</g>
	<g>
		<path class="st0" d="M30.4,94.8h-0.5v-3.6h-1.3v-0.4h3v0.4h-1.3V94.8z"/>
		<path class="st0" d="M35.2,94.8l-0.5-1.3h-1.6l-0.5,1.3h-0.5l1.6-4h0.4l1.6,4H35.2z M34.5,93.1l-0.5-1.2c-0.1-0.2-0.1-0.3-0.2-0.6
			c0,0.2-0.1,0.4-0.2,0.6l-0.5,1.2H34.5z"/>
		<path class="st0" d="M38.4,92.7h1.4v1.9c-0.2,0.1-0.4,0.1-0.6,0.2c-0.2,0-0.5,0.1-0.8,0.1c-0.6,0-1.1-0.2-1.4-0.5
			c-0.3-0.4-0.5-0.9-0.5-1.5c0-0.4,0.1-0.8,0.2-1.1c0.2-0.3,0.4-0.6,0.7-0.7c0.3-0.2,0.7-0.2,1.1-0.2c0.4,0,0.8,0.1,1.2,0.2
			l-0.2,0.4c-0.4-0.2-0.7-0.2-1-0.2c-0.5,0-0.9,0.1-1.1,0.4c-0.3,0.3-0.4,0.7-0.4,1.2c0,0.5,0.1,0.9,0.4,1.2
			c0.3,0.3,0.6,0.4,1.2,0.4c0.3,0,0.5,0,0.8-0.1v-1.2h-0.9V92.7z"/>
		<path class="st0" d="M41.1,94.8v-4h0.5v3.6h1.8v0.4H41.1z"/>
		<path class="st0" d="M44.4,94.8v-4h0.5v4H44.4z"/>
		<path class="st0" d="M49.5,94.8H49l-2.2-3.4h0c0,0.4,0,0.8,0,1.1v2.3h-0.4v-4h0.5l2.2,3.3h0c0,0,0-0.2,0-0.5s0-0.5,0-0.6v-2.3h0.4
			V94.8z"/>
		<path class="st0" d="M53.3,94.8h-2.2v-4h2.2v0.4h-1.8v1.3h1.7v0.4h-1.7v1.5h1.8V94.8z"/>
		<path class="st0" d="M59.5,94.8H59v-1.9h-2.1v1.9h-0.5v-4h0.5v1.7H59v-1.7h0.5V94.8z"/>
		<path class="st0" d="M63.2,94.8H61v-4h2.2v0.4h-1.8v1.3h1.7v0.4h-1.7v1.5h1.8V94.8z"/>
		<path class="st0" d="M65,93.1v1.7h-0.5v-4h1.1c0.5,0,0.9,0.1,1.1,0.3s0.4,0.5,0.4,0.8c0,0.5-0.3,0.9-0.8,1.1l1.1,1.8h-0.5l-1-1.7
			H65z M65,92.7h0.6c0.3,0,0.6-0.1,0.7-0.2c0.2-0.1,0.2-0.3,0.2-0.6c0-0.3-0.1-0.5-0.2-0.6c-0.2-0.1-0.4-0.2-0.8-0.2H65V92.7z"/>
		<path class="st0" d="M70.7,94.8h-2.2v-4h2.2v0.4h-1.8v1.3h1.7v0.4h-1.7v1.5h1.8V94.8z"/>
	</g>
</g>
</svg>
