<?xml version="1.0" encoding="utf-8"?>
<!-- Generator: Adobe Illustrator 25.2.0, SVG Export Plug-In . SVG Version: 6.00 Build 0)  -->
<svg version="1.1" id="Layer_1" xmlns="http://www.w3.org/2000/svg" xmlns:xlink="http://www.w3.org/1999/xlink" x="0px" y="0px"
	 viewBox="0 0 200 75" style="enable-background:new 0 0 200 75;" xml:space="preserve">
<style type="text/css">
	.st0{fill:#ED2330;}
	.st1{fill:#FFFFFF;}
</style>
<g>
	<g>
		<path class="st0" d="M60.5,37.5c0,15.6-12.6,28.2-28.2,28.2C16.6,65.7,4,53.1,4,37.5C4,21.9,16.6,9.3,32.2,9.3
			C47.8,9.3,60.5,21.9,60.5,37.5L60.5,37.5z"/>
	</g>
	<g>
		<path class="st1" d="M51.4,27.6c0-2.1-8.4-3.9-18.9-3.9v0c-0.1,0-0.1,0-0.2,0c-0.1,0-0.1,0-0.2,0v0c-10.5,0-18.9,1.8-18.9,3.9
			c0,0.6,0.7,1.2,2.1,1.8c1.3,3.6,2,11,2,11c2.1,10,6.2,12.8,6.2,12.8c1.5,2,7.1,2.5,8.6,2.6v0c0,0,0.1,0,0.2,0c0.1,0,0.2,0,0.2,0v0
			c1.6-0.1,7.1-0.6,8.6-2.6c0,0,4.1-2.8,6.2-12.8c0,0,0.7-7.4,2-11C50.7,28.8,51.4,28.2,51.4,27.6L51.4,27.6z"/>
	</g>
	<g>
		<path class="st0" d="M16.2,33.1c0,0,8.7,5.3,32.1,0.1l-1.2,7.9c-0.1,0.3-0.3,0.6-0.6,0.7c-2.4,0.7-17,3.8-28.5,0
			c-0.3-0.1-0.5-0.3-0.5-0.5L16.2,33.1z"/>
	</g>
	<g>
		<polygon class="st1" points="32.3,42 25.3,41.6 25,38.3 28.5,38.5 28.5,37.8 23.6,37.4 24,41.5 18.9,40.3 18.5,36.7 20.5,37.3 
			20.3,35.8 17.9,35.2 18.2,39.2 17.2,39.3 16.7,33.8 21.3,35 21.8,38.8 19.7,38.2 19.9,39.4 22.8,40.1 22.5,36.2 29.5,36.8 
			29.6,39.6 26.2,39.4 26.3,40.6 31.3,40.9 31.3,36.7 39.2,36.3 39.4,39.5 35.1,39.8 35.2,40.9 40.5,40.6 40.9,36.1 46.5,34.9 
			46.3,38 44,38.6 44,39.6 46.4,38.9 46.9,35.1 48,35.3 47.3,39.7 42.8,41.1 43,37.8 45.3,37.2 45.4,36.3 41.9,37 41.4,41.6 
			34.1,42 34,38.8 38.3,38.5 38.2,37.4 32.3,37.7 		"/>
	</g>
	<g>
		<path class="st0" d="M32.3,30.7c-4.9,0-9.6-0.3-13.1-0.9c-5.2-0.9-5.8-2-5.8-2.7c0-1.6,3.3-2.3,5.8-2.7c3.5-0.6,8.2-0.9,13.1-0.9
			c4.9,0,9.6,0.3,13.1,0.9c5.2,0.9,5.8,2,5.8,2.7c0,1.6-3.3,2.3-5.8,2.7C41.9,30.3,37.2,30.7,32.3,30.7L32.3,30.7z M32.3,24.4
			c-4.9,0-9.5,0.3-12.9,0.9c-4.1,0.7-4.9,1.5-4.9,1.7c0,0.2,0.8,1,4.9,1.7c3.4,0.6,8,0.9,12.9,0.9c4.9,0,9.5-0.3,12.9-0.9
			c4.1-0.7,4.9-1.5,4.9-1.7c0-0.2-0.8-1-4.9-1.7C41.7,24.7,37.1,24.4,32.3,24.4L32.3,24.4z"/>
	</g>
	<g>
		<path class="st0" d="M30.8,45.1c-2.2,0-4-0.1-5.5-0.3c-4.8-0.5-7.3-1.5-7.3-1.6l-0.3-0.5c0.1,0,10.9,4,29.1,0v0.7
			C40.5,44.9,34.9,45.1,30.8,45.1L30.8,45.1z"/>
	</g>
	<g>
		<path class="st1" d="M32.5,64.4c-14.7,0-26.6-11.9-26.6-26.6s11.9-26.6,26.6-26.6s26.6,11.9,26.6,26.6S47.1,64.4,32.5,64.4z
			 M32.5,12.2c-14.1,0-25.6,11.5-25.6,25.6c0,14.1,11.5,25.6,25.6,25.6s25.6-11.5,25.6-25.6C58.1,23.6,46.6,12.2,32.5,12.2z"/>
	</g>
	<g>
		<path class="st0" d="M77.4,30.6c-2,0-3,0.9-3,2.8v11.5h-4.6V34.3c0-5.1,2.6-7.7,7.7-7.7c2.3,0,4.1,0.5,5.4,1.5
			c1.3-1,3.1-1.5,5.4-1.5c5.1,0,7.7,2.6,7.6,7.7v10.5h-2.3c-1.5-0.1-2.3-0.8-2.3-2.3v-9.2c-0.1-1.9-1.1-2.8-3.1-2.8
			c-2,0-3,0.9-3,2.8v11.4h-4.6V33.3C80.4,31.5,79.4,30.6,77.4,30.6z"/>
		<path class="st0" d="M114.3,39.3c-0.5,2-1.4,3.5-2.7,4.4c-1.5,1-3.2,1.5-5.2,1.5c-5.4-0.2-8.2-3.3-8.2-9.4c0-6.1,2.7-9.2,8.2-9.2
			c5.7,0,8.4,3.5,8,10.5H103c0.2,2.7,1.4,4.1,3.6,4.1c1.1,0,2-0.4,2.9-1.3c0.4-0.4,0.9-0.7,1.5-0.7H114.3z M109.8,33.9
			c-0.3-2.4-1.4-3.6-3.3-3.6c-1.9,0-3.1,1.2-3.4,3.6H109.8z"/>
		<path class="st0" d="M129.7,44.8c-1.5-0.1-2.3-0.8-2.3-2.3v-9.2c-0.1-1.9-1.1-2.8-3.1-2.8c-2,0-3,0.9-3,2.8v11.5h-4.6V34.3
			c0-5.1,2.6-7.7,7.7-7.7c5.1,0,7.7,2.6,7.6,7.7v10.5H129.7z"/>
		<path class="st0" d="M149.9,37.6c0,3.1-0.8,5.1-2.4,6.1c-1.6,0.9-3.4,1.4-5.3,1.4c-1.9,0-3.6-0.5-5.1-1.5c-1.5-1-2.3-3-2.3-6V26.8
			h4.5v11.7c0,2,1,3,3,3s3-1,3-3v-9.5c0-1.5,0.7-2.3,2.2-2.3h2.3V37.6z"/>
		<path class="st0" d="M154.3,44.6c-1.7-0.2-2.5-1.2-2.5-3.2V21.7h2.3c0.6,0,1.1,0.2,1.5,0.7c0.4,0.4,0.7,1,0.7,1.6v2.9h2.7v1
			c0,0.7-0.2,1.2-0.7,1.6c-0.4,0.4-1,0.6-1.6,0.6h-0.5V40c0,0.8,0.4,1.1,1.3,1.1h1.4v3.4C157.6,44.7,156.1,44.7,154.3,44.6z"/>
		<path class="st0" d="M169.4,30.6c-1.2,0-2.2,0.4-2.9,1.3c-0.7,0.9-1,2.1-1,3.6v9.2H161V21.7h2.3c1.5,0,2.3,0.8,2.3,2.3v5.4
			c2.3-2.7,5.1-3.4,8.5-2.2c2.5,0.9,3.7,3.3,3.6,7.2v10.4h-4.5v-9.2c0-1.7-0.3-2.9-0.9-3.6C171.4,31.1,170.5,30.6,169.4,30.6z"/>
		<path class="st0" d="M181.1,48h1.3c2.5,0,3.4-1.2,2.7-3.6l-6.1-17.6h5.1l3.6,12.5l3.1-10.9c0.3-1.1,1-1.6,2.1-1.6h3.2l-7.1,21
			c-0.6,1.5-1.2,2.6-2,3.1c-0.9,0.6-2.2,0.9-3.9,0.9c-1.1,0-1.8,0-1.9-0.1V48z"/>
	</g>
</g>
<g>
	<g>
		<path class="st1" d="M164-154.2L164-154.2l0.2-1.6L164-154.2z M164-154.2L164-154.2l0.2-1.6L164-154.2z M164-154.2L164-154.2
			l0.2-1.6L164-154.2z M148.9-184.6c-15.6,0-28.2,12.6-28.2,28.2c0,15.6,12.6,28.2,28.2,28.2c15.6,0,28.2-12.6,28.2-28.2
			C177.1-172,164.5-184.6,148.9-184.6z M149.1-129.5c-14.7,0-26.6-11.9-26.6-26.6c0-14.7,11.9-26.6,26.6-26.6
			c14.7,0,26.6,11.9,26.6,26.6C175.7-141.4,163.8-129.5,149.1-129.5z M149.1-181.7c-14.1,0-25.6,11.5-25.6,25.6
			c0,14.1,11.5,25.6,25.6,25.6c14.1,0,25.6-11.5,25.6-25.6C174.7-170.2,163.3-181.7,149.1-181.7z M136-168.6c3.4-0.6,8-0.9,12.9-0.9
			s9.5,0.3,12.9,0.9c4.1,0.7,4.9,1.5,4.9,1.7c0,0.2-0.8,1-4.9,1.7c-3.5,0.6-8,0.9-12.9,0.9s-9.5-0.3-12.9-0.9c-4.1-0.7-5-1.5-5-1.7
			C131.1-167.1,131.9-167.9,136-168.6z M157.8-140.7c-1.5,2-7,2.5-8.6,2.6v0c0,0-0.1,0-0.2,0c-0.1,0-0.2,0-0.2,0v0
			c-1.6-0.1-7.1-0.6-8.6-2.6c0,0-3.2-2.2-5.4-9.8c0.4,0.2,2.9,1.1,7.2,1.5c1.5,0.2,3.4,0.3,5.5,0.3c4.1,0,9.6-0.2,15.7-1.6
			C161-142.9,157.8-140.7,157.8-140.7z M166-164.5c-1.3,3.6-2,11-2,11c-0.2,0.9-0.4,1.7-0.6,2.5c-16.8,3.7-27.3,0.6-28.9,0.1
			c-0.1-0.4-0.2-0.8-0.3-1.3c0.1,0.1,0.2,0.2,0.4,0.2c11.5,3.8,26.1,0.7,28.5,0c0.3-0.1,0.6-0.4,0.6-0.7l0.2-1.4l-4.5,1.4l0.2-3.3
			l2.3-0.6l0-0.9l-3.5,0.8l-0.4,4.5l-7.3,0.5l-0.1-3.3l4.3-0.3l-0.1-1l-5.9,0.2v4.3l-7-0.5l-0.3-3.3l3.5,0.2l0-0.7l-4.8-0.4l0.3,4.1
			l-5-1.1l-0.5-3.6l2,0.6L137-158l-2.5-0.6l0.3,4l-1,0.1c0,0,0,0,0-0.1l0-0.1l0-0.2l-0.4-5.2l4.6,1.2l0.4,3.9l-2-0.6l0.2,1.2
			l2.9,0.7l-0.3-3.9l7,0.6l0.2,2.9l-3.4-0.2l0.1,1.1l5,0.3v-4.2l7.9-0.3l0.2,3.1l-4.3,0.3l0,1.1l5.3-0.3l0.4-4.4l5.6-1.2l-0.2,3.1
			l-2.3,0.6l-0.1,1l2.4-0.8l0.6-3.8l1,0.2l-0.4,2.8l0.8-4.9c-22.6,5-31.5,0.2-32.1-0.1c-0.3-1.4-0.6-2.8-1-3.8
			c-1.3-0.5-2.1-1.1-2.1-1.8c0-0.1,0-0.3,0.1-0.4c0.1,0.8,0.9,1.8,5.8,2.6c3.5,0.6,8.2,0.9,13.1,0.9s9.6-0.3,13.1-0.9
			c2.5-0.4,5.8-1.2,5.8-2.7c0.1,0.2,0.2,0.4,0.2,0.6C168.1-165.7,167.3-165.1,166-164.5z M164.2-155.8l-0.2,1.6h0L164.2-155.8z
			 M164-154.2L164-154.2l0.2-1.6L164-154.2z"/>
	</g>
	<g>
		<path class="st1" d="M163.4-151c-0.1,0.2-0.1,0.5-0.2,0.7c-6.2,1.4-11.7,1.6-15.7,1.6c-2.2,0-4-0.1-5.5-0.3
			c-4.3-0.5-6.8-1.4-7.2-1.5c0-0.1-0.1-0.3-0.1-0.5C136.2-150.4,146.6-147.3,163.4-151z"/>
		<path class="st1" d="M159.5-152.7l4.5-1.4l-0.2,1.4c-0.1,0.3-0.3,0.6-0.6,0.7c-2.4,0.7-17,3.8-28.5,0c-0.2,0-0.3-0.1-0.4-0.2v0
			c-0.1-0.4-0.2-0.7-0.3-1.1c0,0,0-0.1,0-0.1c0,0,0-0.1,0-0.2l0-0.2c0-0.2,0-0.4-0.1-0.7l1-0.1l-0.3-4l2.5,0.6l0.2,1.5l-2-0.6
			l0.5,3.6l5,1.1l-0.3-4.1l4.8,0.4l0,0.7l-3.5-0.2l0.3,3.3l7,0.5v-4.3l5.9-0.2l0.1,1l-4.3,0.3l0.1,3.3l7.3-0.5l0.4-4.5l3.5-0.8
			l0,0.9l-2.3,0.6L159.5-152.7z"/>
		<polygon class="st1" points="164,-154.2 164.2,-155.8 164,-154.2 		"/>
		<path class="st1" d="M165-160.6l-0.8,4.9l0.4-2.8l-1-0.2L163-155l-2.4,0.8l0.1-1l2.3-0.6l0.2-3.1l-5.6,1.2l-0.4,4.4l-5.3,0.3
			l0-1.1l4.3-0.3l-0.2-3.1l-7.9,0.3v4.2l-5-0.3l-0.1-1.1l3.4,0.2l-0.2-2.9l-7-0.6l0.3,3.9l-2.9-0.7l-0.2-1.2l2,0.6l-0.4-3.9
			l-4.6-1.2l0.4,5.2c-0.2-1.4-0.5-3.7-0.9-5.9C133.4-160.4,142.3-155.6,165-160.6z"/>
		<path class="st1" d="M149.2-170.2h-0.4c-5.2,0-10,0.5-13.4,1.2c-2.9,0.6-4.9,1.4-5.4,2.3c0.1,0.8,0.9,1.8,5.8,2.6
			c3.5,0.6,8.2,0.9,13.1,0.9s9.6-0.3,13.1-0.9c2.5-0.4,5.8-1.2,5.8-2.7v0C166.5-168.8,158.7-170.2,149.2-170.2z M161.8-165.2
			c-3.5,0.6-8,0.9-12.9,0.9s-9.5-0.3-12.9-0.9c-4.1-0.7-5-1.5-5-1.7c0-0.2,0.8-1,5-1.7c3.4-0.6,8-0.9,12.9-0.9s9.5,0.3,12.9,0.9
			c4.1,0.7,4.9,1.5,4.9,1.7C166.8-166.7,165.9-165.9,161.8-165.2z"/>
	</g>
	<g>
		<path class="st1" d="M164.2-155.8l0.4-2.8l-1-0.2L163-155l-2.4,0.8l0.1-1l2.3-0.6l0.2-3.1l-5.6,1.2l-0.4,4.4l-5.3,0.3l0-1.1
			l4.3-0.3l-0.2-3.1l-7.9,0.3v4.2l-5-0.3l-0.1-1.1l3.4,0.2l-0.2-2.9l-7-0.6l0.3,3.9l-2.9-0.7l-0.2-1.2l2,0.6l-0.4-3.9l-4.6-1.2
			l0.4,5.2l0,0.2l0,0.1c0,0,0,0,0,0.1l1-0.1l-0.3-4l2.5,0.6l0.2,1.5l-2-0.6l0.5,3.6l5,1.1l-0.3-4.1l4.8,0.4l0,0.7l-3.5-0.2l0.3,3.3
			l7,0.5v-4.3l5.9-0.2l0.1,1l-4.3,0.3l0.1,3.3l7.3-0.5l0.4-4.5l3.5-0.8l0,0.9l-2.3,0.6l-0.2,3.3l4.5-1.4l-0.2,1.4
			c-0.1,0.3-0.3,0.6-0.6,0.7c-2.4,0.7-17,3.8-28.5,0c-0.2,0-0.3-0.1-0.4-0.2v0c-0.1-0.1-0.1-0.2-0.1-0.3l-0.1-0.8l0-0.3l0-0.2
			l-1-6.9c0,0,0,0,0,0c0.5,0.3,9.4,5.1,32.1,0.1L164.2-155.8z"/>
	</g>
	<g>
		<path class="st1" d="M133.8-154.6C133.8-154.6,133.8-154.6,133.8-154.6L133.8-154.6L133.8-154.6z"/>
		<polygon class="st1" points="164.2,-155.8 164,-154.2 164,-154.2 		"/>
	</g>
	<g>
		<path class="st1" d="M162-169.6c-3.5-0.6-8.2-0.9-13.1-0.9s-9.6,0.3-13.1,0.9c-2.5,0.4-5.8,1.2-5.8,2.8c0,0,0,0.1,0,0.1
			c0.1,0.8,0.9,1.8,5.8,2.6c3.5,0.6,8.2,0.9,13.1,0.9s9.6-0.3,13.1-0.9c2.5-0.4,5.8-1.2,5.8-2.7v0
			C167.9-167.6,167.2-168.7,162-169.6z M161.8-165.2c-3.5,0.6-8,0.9-12.9,0.9s-9.5-0.3-12.9-0.9c-4.1-0.7-5-1.5-5-1.7
			c0-0.2,0.8-1,5-1.7c3.4-0.6,8-0.9,12.9-0.9s9.5,0.3,12.9,0.9c4.1,0.7,4.9,1.5,4.9,1.7C166.8-166.7,165.9-165.9,161.8-165.2z"/>
	</g>
	<g>
		<path class="st1" d="M163.4-151.1v0.7c-0.1,0-0.2,0-0.2,0c-6.2,1.4-11.7,1.6-15.7,1.6c-2.2,0-4-0.1-5.5-0.3
			c-4.3-0.5-6.8-1.4-7.2-1.5c0,0-0.1,0-0.1,0l-0.3-0.5c0,0,0.1,0,0.2,0.1C136.2-150.4,146.6-147.3,163.4-151.1
			C163.4-151.1,163.4-151.1,163.4-151.1z"/>
	</g>
	<g>
		<path class="st1" d="M204.9-167.2c-2.3,0-4.1,0.5-5.4,1.5c-1.3-1-3.1-1.5-5.4-1.5c-5.1,0-7.7,2.6-7.7,7.7v10.5h4.6v-11.5
			c0-1.9,1.1-2.8,3-2.8s3,0.9,3.1,2.8v11.5h4.6v-11.4c0-1.9,1.1-2.8,3-2.8s3,0.9,3.1,2.8v9.2c0,1.4,0.8,2.2,2.2,2.2h2.3v-10.5
			C212.6-164.7,210-167.2,204.9-167.2z"/>
		<path class="st1" d="M223.3-167.3c-5.5,0-8.2,3.1-8.2,9.2c0,6.1,2.7,9.2,8.1,9.4c2,0,3.7-0.5,5.2-1.5c1.2-0.9,2.1-2.4,2.7-4.4
			h-3.3c-0.6,0-1.1,0.2-1.5,0.7c-0.9,0.8-1.9,1.2-2.9,1.2c-2.2,0-3.4-1.4-3.6-4.1h11.6C231.6-163.8,229-167.3,223.3-167.3z
			 M219.7-160c0.4-2.4,1.5-3.6,3.4-3.6c2,0,3.1,1.2,3.3,3.6H219.7z"/>
		<path class="st1" d="M241.1-167.3c-5.1,0-7.7,2.6-7.7,7.7v10.5h4.6v-11.5c0-1.9,1.1-2.8,3-2.8c2,0,3,0.9,3.1,2.8v9.2
			c0,1.4,0.8,2.2,2.3,2.3h2.3v-10.5C248.8-164.7,246.2-167.3,241.1-167.3z"/>
		<path class="st1" d="M264.2-167c-1.5,0-2.2,0.8-2.2,2.2v9.5c0,2-1,3-3,3c-2,0-3.1-1-3.1-3V-167h-4.5v10.8c0,3,0.8,5,2.3,6
			c1.5,1,3.2,1.5,5.1,1.5c1.9,0,3.7-0.5,5.3-1.4c1.6-1,2.4-3,2.4-6.1V-167H264.2z"/>
		<path class="st1" d="M273.5-163.8c0.6,0,1.2-0.2,1.6-0.6c0.4-0.4,0.7-1,0.7-1.6v-1H273v-2.9c0-0.6-0.2-1.1-0.7-1.6
			c-0.4-0.5-0.9-0.7-1.5-0.7h-2.3v19.6c0,2,0.8,3.1,2.5,3.2c1.7,0.2,3.3,0.2,4.7,0v-3.4h-1.4c-0.9,0-1.3-0.4-1.3-1.1v-9.9H273.5z"/>
		<path class="st1" d="M290.7-166.7c-3.4-1.2-6.2-0.5-8.5,2.2v-5.4c0-1.5-0.8-2.3-2.2-2.3h-2.3v23.1h4.5v-9.2c0-1.5,0.3-2.7,1-3.7
			c0.7-0.9,1.6-1.3,2.9-1.3c1.1,0,2.1,0.4,2.8,1.3c0.6,0.7,0.9,1.9,0.9,3.7v9.2h4.5v-10.4C294.4-163.3,293.2-165.8,290.7-166.7z"/>
		<path class="st1" d="M309.5-167c-1.1,0-1.9,0.5-2.1,1.6l-3.1,10.9l-3.6-12.5h-5.1l6.1,17.6c0.7,2.4-0.2,3.6-2.7,3.6h-1.3v3.7
			c0.1,0.1,0.8,0.1,1.9,0.1c1.7,0,3-0.3,3.9-0.9c0.8-0.5,1.4-1.6,2-3.1l7.1-21H309.5z"/>
	</g>
</g>
</svg>
