<?xml version="1.0" encoding="utf-8"?>
<!-- Generator: Adobe Illustrator 16.0.0, SVG Export Plug-In . SVG Version: 6.00 Build 0)  -->
<!DOCTYPE svg PUBLIC "-//W3C//DTD SVG 1.1//EN" "http://www.w3.org/Graphics/SVG/1.1/DTD/svg11.dtd">
<svg version="1.1" id="Layer_1" xmlns="http://www.w3.org/2000/svg" xmlns:xlink="http://www.w3.org/1999/xlink" x="0px" y="0px"
	 width="397px" height="114px" viewBox="0 0 397 114" enable-background="new 0 0 397 114" xml:space="preserve">
<path fill="#ED2330" d="M138.62,57.67c0,27.57-22.351,49.92-49.921,49.92c-27.571,0-49.921-22.351-49.921-49.92
	c0-27.57,22.35-49.921,49.921-49.921C116.269,7.749,138.62,30.1,138.62,57.67"/>
<path fill="#FFFFFF" d="M122.589,40.097c0-3.8-14.867-6.89-33.36-6.971v-0.003c-0.125,0-0.251,0.001-0.377,0.001
	c-0.125,0-0.25-0.001-0.377-0.001v0.003c-18.492,0.082-33.36,3.171-33.36,6.971c0,1.129,1.316,2.196,3.65,3.141
	c2.236,6.339,3.513,19.476,3.513,19.476c3.77,17.717,10.932,22.617,10.932,22.617c2.735,3.54,12.475,4.47,15.266,4.666v0.046
	c0,0,0.135-0.006,0.377-0.021c0.242,0.015,0.377,0.021,0.377,0.021v-0.046c2.791-0.196,12.532-1.126,15.267-4.666
	c0,0,7.162-4.9,10.931-22.617c0,0,1.275-13.137,3.512-19.476C121.273,42.293,122.589,41.227,122.589,40.097"/>
<path fill="#ED2330" d="M60.404,49.935c0,0,15.43,9.36,56.72,0.151l-2.159,13.982c-0.097,0.579-0.516,1.05-1.08,1.211
	c-4.28,1.218-30.121,6.67-50.445,0.051c-0.458-0.149-0.831-0.482-0.902-0.959L60.404,49.935z"/>
<polygon fill="#FFFFFF" points="88.901,65.7 76.499,64.875 75.965,59.103 82.11,59.459 82.036,58.156 73.539,57.437 74.09,64.66 
	65.197,62.645 64.394,56.328 68.006,57.392 67.701,54.689 63.329,53.585 63.935,60.733 62.058,60.893 61.228,51.111 69.426,53.182 
	70.198,60.002 66.627,58.95 66.901,61.098 72.017,62.257 71.491,55.372 83.825,56.416 84.111,61.462 78.044,61.111 78.228,63.1 
	87.017,63.686 87.017,56.207 101.067,55.598 101.337,61.16 93.792,61.689 93.885,63.692 103.256,63.098 103.964,55.278 
	113.926,53.104 113.648,58.556 109.521,59.613 109.437,61.446 113.693,60.092 114.684,53.443 116.548,53.722 115.384,61.533 
	107.429,64.061 107.703,58.133 111.837,57.074 111.918,55.471 105.717,56.825 104.987,64.876 92.091,65.694 91.824,59.938 
	99.365,59.408 99.275,57.563 88.901,58.012 "/>
<path fill="#ED2330" d="M88.759,45.563c-8.736,0-16.957-0.583-23.148-1.642c-9.238-1.581-10.306-3.531-10.306-4.861
	c0-2.777,5.882-4.104,10.306-4.86c6.191-1.059,14.413-1.643,23.148-1.643c8.735,0,16.957,0.583,23.148,1.643
	c9.237,1.58,10.306,3.53,10.306,4.86c0,2.776-5.881,4.104-10.306,4.861C105.715,44.979,97.494,45.563,88.759,45.563 M88.759,34.443
	c-8.633,0-16.741,0.574-22.831,1.615c-7.255,1.24-8.738,2.684-8.738,3.002c0,0.318,1.483,1.762,8.738,3.002
	c6.09,1.042,14.198,1.615,22.831,1.615c8.632,0,16.74-0.574,22.83-1.615c7.256-1.24,8.739-2.684,8.739-3.002
	c0-0.319-1.483-1.762-8.739-3.002C105.499,35.017,97.391,34.443,88.759,34.443"/>
<path fill="#ED2330" d="M86.195,71.176c-3.835,0-7.108-0.211-9.782-0.498c-8.417-0.901-12.897-2.726-12.941-2.744l-0.49-0.886
	c0.176,0.072,19.247,7.154,51.434,0v1.21C103.332,70.722,93.48,71.176,86.195,71.176"/>
<path fill="none" stroke="#FFFFFF" stroke-miterlimit="10" d="M135.292,58.123c0,25.482-20.658,46.139-46.139,46.139
	c-25.482,0-46.139-20.657-46.139-46.139c0-25.481,20.657-46.139,46.139-46.139C114.634,11.984,135.292,32.642,135.292,58.123"/>
<text transform="matrix(1 0 0 1 153 70.5864)" fill="#ED2330" font-family="'HarabaraMaisBold-HarabaraMaisBold'" font-size="60">menuthy</text>
</svg>
