<?xml version="1.0" encoding="utf-8"?>
<!-- Generator: Adobe Illustrator 25.2.0, SVG Export Plug-In . SVG Version: 6.00 Build 0)  -->
<svg version="1.1" id="Layer_1" xmlns="http://www.w3.org/2000/svg" xmlns:xlink="http://www.w3.org/1999/xlink" x="0px" y="0px"
	 viewBox="0 0 40 40" style="enable-background:new 0 0 40 40;" xml:space="preserve">
<style type="text/css">
	.st0{fill:#ED2330;}
	.st1{fill:#FFFFFF;}
</style>
<g>
	<g>
		<path class="st1" d="M29.8,21.4L29.8,21.4l0.1-1L29.8,21.4z M29.8,21.4L29.8,21.4l0.1-1L29.8,21.4z M29.8,21.4L29.8,21.4l0.1-1
			L29.8,21.4z M20.1,1.8C9.9,1.8,1.8,9.9,1.8,20S9.9,38.2,20,38.2S38.2,30.1,38.2,20C38.3,9.9,30.1,1.8,20.1,1.8z M20.2,37.3
			C10.8,37.3,3,29.6,3,20.1S10.8,3,20.2,3c9.5,0,17.2,7.7,17.2,17.2S29.7,37.3,20.2,37.3z M20.2,3.6C11.1,3.6,3.7,11,3.7,20.1
			s7.4,16.5,16.5,16.5s16.5-7.4,16.5-16.5S29.3,3.6,20.2,3.6z M11.7,12.1c2.2-0.4,5.2-0.6,8.4-0.6s6.1,0.2,8.4,0.6
			c2.6,0.4,3.2,1,3.2,1.1c0,0.1-0.5,0.7-3.2,1.1c-2.2,0.4-5.2,0.6-8.4,0.6s-6.1-0.2-8.4-0.6c-2.6-0.4-3.2-1-3.2-1.1
			C8.6,13.1,9.1,12.6,11.7,12.1z M25.8,30.1c-1,1.3-4.6,1.6-5.6,1.7l0,0c0,0-0.1,0-0.1,0c-0.1,0-0.1,0-0.1,0l0,0
			c-1-0.1-4.6-0.4-5.6-1.7c0,0-2.1-1.4-3.5-6.3c0.3,0.1,1.9,0.7,4.7,1c1,0.1,2.2,0.1,3.6,0.1c2.6,0,6.2-0.1,10.1-1
			C27.9,28.7,25.8,30.1,25.8,30.1z M31.1,14.7c-0.8,2.3-1.2,7.1-1.2,7.1c-0.1,0.6-0.2,1.1-0.4,1.6c-10.9,2.4-17.6,0.4-18.6,0.1
			c-0.1-0.3-0.1-0.5-0.2-0.8c0.1,0.1,0.1,0.1,0.2,0.1c7.4,2.4,16.9,0.4,18.4,0c0.2-0.1,0.4-0.2,0.4-0.4l0.1-1l-2.9,1l0.1-2.1
			l1.5-0.4v-0.6l-2.3,0.5l-0.3,2.9l-4.6,0.1l-0.1-2.1l2.7-0.2v-0.7l-3.8,0.1v2.9l-4.6-0.3l-0.2-2.1l2.3,0.1v-0.5l-3.1-0.3l0.2,2.6
			l-3.2-0.7l-0.3-2.3l1.3,0.4l-0.1-1l-1.8-0.4l0.2,2.6l-0.7,0.1c0,0,0,0,0-0.1v-0.1V21L10,17.7l3,0.7l0.3,2.5L12,20.5l0.1,0.8
			l1.8,0.4l-0.2-2.5l4.5,0.4l0.1,1.8L16,21.3l0.1,0.7l3.2,0.2v-2.7l5.1-0.2l0.1,2.1l-2.6,0.1v0.7l3.4-0.2l0.3-2.9l3.7-0.8l-0.1,2
			l-1.5,0.4v0.7l1.5-0.5l0.4-2.4l0.7,0.1l-0.3,1.8l0.5-3.2C16,20.4,10.2,17.3,9.9,17.1c-0.1-0.9-0.4-1.8-0.6-2.5
			C8.4,14.2,8,13.8,8,13.4c0-0.1,0-0.2,0.1-0.3c0.1,0.5,0.6,1.2,3.7,1.7c2.1,0.6,5.1,0.8,8.3,0.8s6.2-0.2,8.4-0.6
			c1.6-0.3,3.7-0.7,3.7-1.8c0.1,0.1,0.1,0.2,0.1,0.4C32.4,14,32,14.3,31.1,14.7z M30,20.4l-0.1,1l0,0L30,20.4z M29.8,21.4L29.8,21.4
			l0.1-1L29.8,21.4z"/>
	</g>
	<g>
		<path class="st1" d="M29.5,23.4c-0.1,0.1-0.1,0.3-0.1,0.4c-4,0.9-7.6,1-10.1,1c-1.4,0-2.6-0.1-3.6-0.1c-2.8-0.3-4.4-0.9-4.7-1
			c0-0.1-0.1-0.2-0.1-0.3C11.9,23.8,18.6,25.8,29.5,23.4z"/>
		<path class="st1" d="M26.9,22.3l2.9-1l-0.1,1c-0.1,0.2-0.2,0.4-0.4,0.4c-1.5,0.4-11,2.4-18.4,0c-0.1,0-0.1-0.1-0.2-0.1l0,0
			c-0.1-0.2-0.1-0.4-0.1-0.7v-0.1c0,0,0-0.1,0-0.1v-0.1c0-0.1,0-0.2-0.1-0.4l0.7-0.1l-0.4-2.5l1.6,0.4l0.1,1l-1.3-0.4l0.3,2.3
			l3.2,0.7l-0.2-2.6l3.1,0.3v0.5l-2.1-0.1l0.2,2.1l4.6,0.3v-2.8L24,20v0.7l-2.7,0.2l0.1,2.1l4.7-0.3l0.3-2.9l2.3-0.5v0.6L27,20.2
			L26.9,22.3z"/>
		<path class="st1" d="M29.8,21.4l0.2-1L29.8,21.4z"/>
		<path class="st1" d="M30.4,17.2l-0.5,3.2l0.3-1.8l-0.7-0.1l-0.4,2.4l-1.5,0.5v-0.7l1.5-0.4l0.1-2l-3.7,0.8l-0.3,2.9l-3.3,0.1v-0.7
			l2.8-0.2l-0.1-2l-5.1,0.2v2.7L16.2,22l-0.1-0.7l2.2,0.1l-0.1-1.8l-4.5-0.4l0.2,2.5l-1.8-0.4l-0.1-0.8l1.3,0.4l-0.3-2.5l-3-0.7
			l0.3,3.4c-0.1-0.9-0.3-2.3-0.6-3.8C10.1,17.4,15.8,20.5,30.4,17.2z"/>
		<path class="st1" d="M20.2,11h-0.3c-3.4,0-6.5,0.3-8.7,0.7c-1.9,0.4-3.2,0.9-3.4,1.5c0.1,0.5,0.6,1.2,3.7,1.7
			c2.3,0.4,5.4,0.7,8.5,0.7s6.2-0.2,8.4-0.6c1.6-0.3,3.7-0.7,3.7-1.8l0,0C31.4,12,26.4,11,20.2,11z M28.4,14.3
			c-2.2,0.4-5.2,0.6-8.4,0.6s-6.1-0.2-8.4-0.6c-2.6-0.4-3.2-1-3.2-1.1c0-0.1,0.5-0.7,3.2-1.1c2.2-0.4,5.2-0.6,8.4-0.6
			s6.1,0.2,8.4,0.6c2.6,0.4,3.2,1,3.2,1.1C31.6,13.3,31.1,13.8,28.4,14.3z"/>
	</g>
	<g>
		<path class="st1" d="M30,20.4l0.3-1.8l-0.7-0.1l-0.4,2.4l-1.5,0.5v-0.7l1.5-0.4l0.1-2l-3.7,0.8l-0.3,2.9l-3.4,0.1v-0.7l2.8-0.2
			l-0.1-2l-5.1,0.2v2.7L16.2,22l-0.1-0.7l2.2,0.1l-0.1-1.8l-4.5-0.4l0.2,2.5l-1.8-0.4l-0.1-0.8l1.3,0.4l-0.3-2.5l-3-0.7l0.3,3.4V21
			v0.1c0,0,0,0,0,0.1l0.7-0.1l-0.3-2.6l1.6,0.4l0.1,1l-1.3-0.4l0.3,2.3l3.2,0.7l-0.2-2.6l3.1,0.3v0.5l-2.1-0.1l0.2,2.1l4.6,0.3v-2.8
			L24,20v0.7l-2.7,0.2l0.1,2.1l4.7-0.3l0.3-2.9l2.3-0.5v0.6L27,20.2L27,22.3l2.9-1l-0.1,1c-0.1,0.2-0.2,0.4-0.4,0.4
			c-1.5,0.4-11,2.4-18.4,0c-0.1,0-0.1-0.1-0.2-0.1l0,0c-0.1-0.1-0.1-0.1-0.1-0.2l-0.1-0.5v-0.2v-0.1l-0.7-4.4l0,0
			c0.4,0.2,6.1,3.3,20.7,0.1L30,20.4z"/>
	</g>
	<g>
		<polygon class="st1" points="30,20.4 29.8,21.4 29.8,21.4 		"/>
	</g>
	<g>
		<path class="st1" d="M28.5,11.4c-2.3-0.4-5.3-0.6-8.4-0.6s-6.2,0.2-8.4,0.6c-1.6,0.3-3.7,0.7-3.7,1.8v0.1c0.1,0.5,0.6,1.2,3.7,1.7
			c2.3,0.4,5.3,0.7,8.4,0.7s6.2-0.2,8.4-0.6c1.6-0.3,3.7-0.7,3.7-1.8l0,0C32.3,12.7,31.9,12,28.5,11.4z M28.4,14.3
			c-2.2,0.4-5.2,0.6-8.4,0.6s-6.1-0.2-8.4-0.6c-2.6-0.4-3.2-1-3.2-1.1c0-0.1,0.5-0.7,3.2-1.1c2.2-0.4,5.2-0.6,8.4-0.6
			s6.1,0.2,8.4,0.6c2.6,0.4,3.2,1,3.2,1.1C31.6,13.3,31.1,13.8,28.4,14.3z"/>
	</g>
	<g>
		<path class="st1" d="M29.5,23.4v0.4c-0.1,0-0.1,0-0.1,0c-4,0.9-7.6,1-10.1,1c-1.4,0-2.6-0.1-3.6-0.1c-2.8-0.3-4.4-0.9-4.7-1h-0.1
			l-0.1-0.3c0,0,0.1,0,0.1,0.1C11.9,23.8,18.6,25.8,29.5,23.4L29.5,23.4z"/>
	</g>
</g>
</svg>
