<?xml version="1.0" encoding="utf-8"?>
<!-- Generator: Adobe Illustrator 25.2.0, SVG Export Plug-In . SVG Version: 6.00 Build 0)  -->
<svg version="1.1" id="Layer_1" xmlns="http://www.w3.org/2000/svg" xmlns:xlink="http://www.w3.org/1999/xlink" x="0px" y="0px"
	 viewBox="0 0 200 54" style="enable-background:new 0 0 200 54;" xml:space="preserve">
<style type="text/css">
	.st0{fill:#FFFFFF;}
</style>
<g>
	<g>
		<path class="st0" d="M53.6,28.9L53.6,28.9l0.2-1.4L53.6,28.9z M53.6,28.9L53.6,28.9l0.2-1.4L53.6,28.9z M53.6,28.9L53.6,28.9
			l0.2-1.4L53.6,28.9z M40.4,2.2C26.6,2.2,15.5,13.3,15.5,27c0,13.7,11.1,24.8,24.8,24.8c13.7,0,24.8-11.1,24.8-24.8
			C65.2,13.3,54.1,2.2,40.4,2.2z M40.6,50.6c-12.9,0-23.4-10.5-23.4-23.4c0-12.9,10.5-23.4,23.4-23.4C53.5,3.8,64,14.3,64,27.2
			C64,40.1,53.5,50.6,40.6,50.6z M40.6,4.7c-12.4,0-22.5,10.1-22.5,22.5c0,12.4,10.1,22.5,22.5,22.5c12.4,0,22.5-10.1,22.5-22.5
			C63.1,14.8,53,4.7,40.6,4.7z M29,16.2c3-0.5,7.1-0.8,11.4-0.8s8.3,0.3,11.4,0.8c3.6,0.6,4.3,1.3,4.3,1.5c0,0.2-0.7,0.9-4.3,1.5
			c-3,0.5-7.1,0.8-11.4,0.8s-8.3-0.3-11.4-0.8c-3.6-0.6-4.4-1.3-4.4-1.5C24.7,17.6,25.4,16.9,29,16.2z M48.2,40.8
			c-1.4,1.8-6.2,2.2-7.6,2.3v0c0,0-0.1,0-0.2,0c-0.1,0-0.2,0-0.2,0v0c-1.4-0.1-6.2-0.6-7.6-2.3c0,0-2.8-1.9-4.8-8.6
			c0.4,0.1,2.6,0.9,6.4,1.3c1.3,0.1,3,0.2,4.9,0.2c3.6,0,8.4-0.2,13.8-1.4C51,38.9,48.2,40.8,48.2,40.8z M55.4,19.8
			c-1.1,3.2-1.7,9.7-1.7,9.7c-0.2,0.8-0.3,1.5-0.5,2.2c-14.8,3.3-24,0.5-25.4,0.1c-0.1-0.4-0.2-0.7-0.3-1.1c0.1,0.1,0.2,0.2,0.3,0.2
			c10.1,3.3,23,0.6,25.1,0c0.3-0.1,0.5-0.3,0.5-0.6l0.2-1.3l-4,1.3l0.1-2.9l2.1-0.5l0-0.8l-3.1,0.7l-0.4,4L42.1,31l-0.1-2.9l3.7-0.3
			l0-0.9l-5.2,0.2V31l-6.2-0.4L34,27.7l3.1,0.2l0-0.7l-4.2-0.4l0.3,3.6l-4.4-1l-0.4-3.1l1.8,0.5l-0.1-1.3L27.7,25l0.3,3.6l-0.9,0.1
			c0,0,0,0,0-0.1l0-0.1l0-0.1l-0.4-4.6l4.1,1l0.4,3.4l-1.8-0.5l0.1,1.1l2.5,0.6l-0.3-3.4l6.1,0.5l0.1,2.5l-3-0.2l0.1,1l4.4,0.3v-3.7
			l7-0.3l0.1,2.8L42.9,29l0,1l4.7-0.3l0.4-3.9l5-1.1l-0.1,2.7l-2,0.5l0,0.9l2.1-0.7l0.5-3.3l0.9,0.1l-0.4,2.5l0.7-4.3
			c-19.9,4.4-27.7,0.2-28.2-0.1c-0.2-1.2-0.5-2.4-0.8-3.4c-1.2-0.5-1.8-1-1.8-1.6c0-0.1,0-0.3,0.1-0.4c0.1,0.7,0.8,1.6,5.1,2.3
			C32,20.7,36.1,21,40.4,21s8.4-0.3,11.5-0.8c2.2-0.4,5.1-1,5.1-2.4c0.1,0.2,0.2,0.3,0.2,0.5C57.2,18.8,56.6,19.3,55.4,19.8z
			 M53.9,27.5l-0.2,1.4h0L53.9,27.5z M53.6,28.9L53.6,28.9l0.2-1.4L53.6,28.9z"/>
	</g>
	<g>
		<path class="st0" d="M53.2,31.7c-0.1,0.2-0.1,0.4-0.2,0.6c-5.4,1.2-10.3,1.4-13.8,1.4c-1.9,0-3.5-0.1-4.9-0.2
			c-3.8-0.4-6-1.2-6.4-1.3c0-0.1-0.1-0.3-0.1-0.4C29.2,32.2,38.4,34.9,53.2,31.7z"/>
		<path class="st0" d="M49.7,30.2l4-1.3l-0.2,1.3c-0.1,0.3-0.3,0.5-0.5,0.6c-2.1,0.6-15,3.3-25.1,0c-0.1,0-0.2-0.1-0.3-0.2v0
			c-0.1-0.3-0.2-0.6-0.2-1c0,0,0-0.1,0-0.1c0,0,0-0.1,0-0.2l0-0.2c0-0.1,0-0.3-0.1-0.6l0.9-0.1L27.7,25l2.2,0.5l0.1,1.3l-1.8-0.5
			l0.4,3.1l4.4,1l-0.3-3.6l4.2,0.4l0,0.7L34,27.7l0.3,2.9l6.2,0.4v-3.8l5.2-0.2l0,0.9l-3.7,0.3l0.1,2.9l6.4-0.4l0.4-4l3.1-0.7l0,0.8
			l-2.1,0.5L49.7,30.2z"/>
		<polygon class="st0" points="53.6,28.9 53.9,27.5 53.6,28.9 		"/>
		<path class="st0" d="M54.5,23.2l-0.7,4.3l0.4-2.5l-0.9-0.1l-0.5,3.3l-2.1,0.7l0-0.9l2-0.5l0.1-2.7l-5,1.1l-0.4,3.9L42.9,30l0-1
			l3.8-0.3L46.5,26l-7,0.3V30l-4.4-0.3l-0.1-1l3,0.2l-0.1-2.5l-6.1-0.5l0.3,3.4l-2.5-0.6l-0.1-1.1l1.8,0.5l-0.4-3.4l-4.1-1l0.4,4.6
			c-0.1-1.2-0.4-3.2-0.8-5.2C26.8,23.4,34.6,27.7,54.5,23.2z"/>
		<path class="st0" d="M40.6,14.8h-0.4c-4.6,0-8.8,0.4-11.8,1c-2.6,0.5-4.3,1.2-4.7,2c0.1,0.7,0.8,1.6,5.1,2.3
			C32,20.7,36.1,21,40.4,21s8.4-0.3,11.5-0.8c2.2-0.4,5.1-1,5.1-2.4v0C55.8,16.1,49,14.8,40.6,14.8z M51.8,19.2
			c-3,0.5-7.1,0.8-11.4,0.8s-8.3-0.3-11.4-0.8c-3.6-0.6-4.4-1.3-4.4-1.5c0-0.2,0.7-0.9,4.4-1.5c3-0.5,7.1-0.8,11.4-0.8
			s8.3,0.3,11.4,0.8c3.6,0.6,4.3,1.3,4.3,1.5C56.1,17.9,55.4,18.6,51.8,19.2z"/>
	</g>
	<g>
		<path class="st0" d="M53.9,27.5l0.4-2.5l-0.9-0.1l-0.5,3.3l-2.1,0.7l0-0.9l2-0.5l0.1-2.7l-5,1.1l-0.4,3.9L42.9,30l0-1l3.8-0.3
			L46.5,26l-7,0.3V30l-4.4-0.3l-0.1-1l3,0.2l-0.1-2.5l-6.1-0.5l0.3,3.4l-2.5-0.6l-0.1-1.1l1.8,0.5l-0.4-3.4l-4.1-1l0.4,4.6l0,0.1
			l0,0.1c0,0,0,0,0,0.1l0.9-0.1L27.7,25l2.2,0.5l0.1,1.3l-1.8-0.5l0.4,3.1l4.4,1l-0.3-3.6l4.2,0.4l0,0.7L34,27.7l0.3,2.9l6.2,0.4
			v-3.8l5.2-0.2l0,0.9l-3.7,0.3l0.1,2.9l6.4-0.4l0.4-4l3.1-0.7l0,0.8l-2.1,0.5l-0.1,2.9l4-1.3l-0.2,1.3c-0.1,0.3-0.3,0.5-0.5,0.6
			c-2.1,0.6-15,3.3-25.1,0c-0.1,0-0.2-0.1-0.3-0.2v0c-0.1-0.1-0.1-0.2-0.1-0.3l-0.1-0.7l0-0.3l0-0.2l-0.9-6c0,0,0,0,0,0
			c0.5,0.3,8.3,4.5,28.2,0.1L53.9,27.5z"/>
	</g>
	<g>
		<path class="st0" d="M27.1,28.5C27.1,28.6,27.1,28.6,27.1,28.5L27.1,28.5L27.1,28.5z"/>
		<polygon class="st0" points="53.9,27.5 53.6,28.9 53.6,28.9 		"/>
	</g>
	<g>
		<path class="st0" d="M51.9,15.3c-3.1-0.5-7.2-0.8-11.5-0.8s-8.4,0.3-11.5,0.8c-2.2,0.4-5.1,1-5.1,2.4c0,0,0,0.1,0,0.1
			c0.1,0.7,0.8,1.6,5.1,2.3C32,20.7,36.1,21,40.4,21s8.4-0.3,11.5-0.8c2.2-0.4,5.1-1,5.1-2.4v0C57.1,17.1,56.5,16.1,51.9,15.3z
			 M51.8,19.2c-3,0.5-7.1,0.8-11.4,0.8s-8.3-0.3-11.4-0.8c-3.6-0.6-4.4-1.3-4.4-1.5c0-0.2,0.7-0.9,4.4-1.5c3-0.5,7.1-0.8,11.4-0.8
			s8.3,0.3,11.4,0.8c3.6,0.6,4.3,1.3,4.3,1.5C56.1,17.9,55.4,18.6,51.8,19.2z"/>
	</g>
	<g>
		<path class="st0" d="M53.2,31.7v0.6c-0.1,0-0.1,0-0.2,0c-5.4,1.2-10.3,1.4-13.8,1.4c-1.9,0-3.5-0.1-4.9-0.2
			c-3.8-0.4-6-1.2-6.4-1.3c0,0-0.1,0-0.1,0l-0.2-0.4c0,0,0.1,0,0.2,0.1C29.2,32.2,38.4,34.9,53.2,31.7
			C53.2,31.7,53.2,31.7,53.2,31.7z"/>
	</g>
	<g>
		<path class="st0" d="M89.6,17.4c-2,0-3.6,0.4-4.7,1.3c-1.1-0.9-2.7-1.3-4.7-1.3c-4.5,0-6.8,2.3-6.8,6.8v9.3h4V23.3
			c0-1.6,0.9-2.5,2.7-2.5c1.8,0,2.7,0.8,2.7,2.5v10.1h4v-10c0-1.6,0.9-2.4,2.7-2.4s2.7,0.8,2.7,2.4v8.1c0,1.2,0.7,1.9,2,2h2v-9.3
			C96.4,19.7,94.1,17.4,89.6,17.4z"/>
		<path class="st0" d="M105.8,17.4c-4.8,0-7.2,2.7-7.2,8.1c0,5.4,2.4,8.1,7.2,8.3c1.8,0,3.3-0.4,4.5-1.3c1.1-0.8,1.9-2.1,2.3-3.9
			h-2.9c-0.5,0-1,0.2-1.3,0.6c-0.8,0.7-1.6,1.1-2.6,1.1c-1.9,0-3-1.2-3.1-3.6h10.2C113.2,20.5,110.8,17.4,105.8,17.4z M102.7,23.8
			c0.3-2.1,1.3-3.1,3-3.1c1.7,0,2.7,1,2.9,3.1H102.7z"/>
		<path class="st0" d="M121.5,17.4c-4.5,0-6.8,2.3-6.8,6.8v9.3h4V23.3c0-1.6,0.9-2.5,2.7-2.5c1.8,0,2.7,0.8,2.7,2.5v8.1
			c0,1.2,0.7,1.9,2,2h2v-9.3C128.2,19.6,126,17.4,121.5,17.4z"/>
		<path class="st0" d="M141.8,17.6c-1.3,0-2,0.7-1.9,2v8.3c0,1.8-0.9,2.6-2.7,2.6c-1.8,0-2.7-0.9-2.7-2.6V17.6h-4v9.5
			c0,2.6,0.7,4.4,2,5.2c1.4,0.9,2.9,1.3,4.5,1.3c1.7,0,3.3-0.4,4.7-1.2c1.4-0.9,2.1-2.6,2.1-5.4v-9.5H141.8z"/>
		<path class="st0" d="M150,20.5c0.5,0,1-0.2,1.4-0.6c0.4-0.4,0.6-0.8,0.6-1.4v-0.9h-2.4v-2.5c0-0.5-0.2-1-0.6-1.4
			c-0.4-0.4-0.8-0.6-1.3-0.6h-2v17.3c0,1.8,0.7,2.7,2.2,2.8c1.5,0.1,2.9,0.1,4.2,0v-3h-1.2c-0.8,0-1.2-0.3-1.2-1v-8.7H150z"/>
		<path class="st0" d="M165.1,17.9c-3-1-5.4-0.4-7.5,1.9v-4.7c0-1.3-0.7-2-2-2h-2v20.3h4v-8.1c0-1.3,0.3-2.4,0.9-3.2
			c0.6-0.8,1.4-1.2,2.5-1.2c1,0,1.8,0.4,2.4,1.2c0.5,0.6,0.8,1.7,0.8,3.2v8.1h4v-9.2C168.4,20.9,167.3,18.7,165.1,17.9z"/>
		<path class="st0" d="M181.7,17.6c-1,0-1.6,0.5-1.9,1.4l-2.7,9.6l-3.1-11h-4.5l5.4,15.5c0.6,2.1-0.1,3.1-2.3,3.1h-1.1v3.3
			c0.1,0.1,0.7,0.1,1.7,0.1c1.5,0,2.7-0.2,3.4-0.8c0.7-0.5,1.2-1.4,1.7-2.7l6.2-18.5H181.7z"/>
	</g>
</g>
</svg>
